<svg xmlns="http://www.w3.org/2000/svg" viewBox="0 0 283.85 49.39"><defs><style>.cls-1{fill:#189dd9;}.cls-2{isolation:isolate;}</style></defs><title>Asset 7</title><g id="Layer_2" data-name="Layer 2"><g id="Layer_1-2" data-name="Layer 1"><path class="cls-1" d="M0,0V16.2a13.3,13.3,0,0,1,1.4-1.9A14.54,14.54,0,0,1,5.9,11a13.57,13.57,0,0,1,5.9-1.2,13.36,13.36,0,0,1,4,.6,7.2,7.2,0,0,1,2.7,1.5A4.82,4.82,0,0,1,20,14.1a7.42,7.42,0,0,1,.5,2.5,8.08,8.08,0,0,1-.8,3.4,7.46,7.46,0,0,1-2.6,2.7,14.49,14.49,0,0,1-4.9,1.8,38.39,38.39,0,0,1-7.6.7v.3h0A7.72,7.72,0,0,0,4.8,27a3.53,3.53,0,0,0,.8,1.3,5.6,5.6,0,0,0,1.5,1,6.2,6.2,0,0,0,2.3.4c.6,0,1.2-.1,1.8-.1a14.62,14.62,0,0,0,2-.5,11.76,11.76,0,0,0,2-.7c.7-.3,1.3-.6,1.9-.9l-1,4.9h3l.8-4.3c.5.2.9.5,1.4.7s1.1.4,1.7.6a10.62,10.62,0,0,0,1.9.4,12.25,12.25,0,0,0,1.9.2,4,4,0,0,0,2.6-.6,2,2,0,0,0,.9-1.7,2,2,0,0,0-.7-1.6,6.78,6.78,0,0,0-2.3-1.4c-.8-.4-1.6-.8-2.4-1.3a8,8,0,0,1-1.7-1.5,6.7,6.7,0,0,1-1.1-1.8,8.52,8.52,0,0,1-.4-2.3,9.18,9.18,0,0,1,.5-2.8,7.82,7.82,0,0,1,1.7-2.6,9.38,9.38,0,0,1,3.2-1.9A13.86,13.86,0,0,1,32,9.8a10.87,10.87,0,0,1,1.8.1c.6.1,1.2.1,1.8.2s1.2.2,1.7.3,1,.3,1.4.4l-1.2,5.6a6.12,6.12,0,0,0-1.2-.5c-.5-.2-.9-.3-1.4-.5s-1-.3-1.5-.4a7.57,7.57,0,0,0-1.5-.1,3.74,3.74,0,0,0-2.5.6,2,2,0,0,0-.7,1.6,2.36,2.36,0,0,0,.7,1.6,7.61,7.61,0,0,0,1.9,1.2c.8.4,1.7.9,2.5,1.4a6.55,6.55,0,0,1,1.8,1.5,6.37,6.37,0,0,1,1,1.8,6.61,6.61,0,0,1,.3,2.4,7.17,7.17,0,0,1-.6,2.9,6.67,6.67,0,0,1-1.9,2.5H47.1V0Z"/><path class="cls-1" d="M13.6,16.32a1.68,1.68,0,0,0-.6-1.4,3,3,0,0,0-1.8-.6,4.48,4.48,0,0,0-2,.4,6.57,6.57,0,0,0-1.7,1.2,8,8,0,0,0-1.3,1.9,11.72,11.72,0,0,0-.9,2.4,15.16,15.16,0,0,0,6.3-1A3,3,0,0,0,13.6,16.32Z"/><g class="cls-2"><path d="M52.9,45.77a3.1,3.1,0,0,1-1.65.43,2.28,2.28,0,0,1-1.65-.58,5.07,5.07,0,0,1-1.05-1.74,7,7,0,0,1-.3-2.61,9.1,9.1,0,0,1,.45-2.91,3.46,3.46,0,0,1,1.2-1.88,2.43,2.43,0,0,1,1.65-.73,5.69,5.69,0,0,1,1.5.29V38.8a2.07,2.07,0,0,0-.6-.44,1.43,1.43,0,0,0-.75-.14,1.54,1.54,0,0,0-1.2.72,3.55,3.55,0,0,0-.45,1.89,3.23,3.23,0,0,0,.45,1.89,1.35,1.35,0,0,0,1.2.72,1.84,1.84,0,0,0,1.35-.58v2.91Z"/><path d="M56.8,41.27a.52.52,0,0,0-.3-.15h-.3q-.9,0-.9,1.74v3.2H53.5V38.8h1.8v1.3h0a3.37,3.37,0,0,1,.45-1c.15-.29.45-.29.75-.29s.15,0,.3.14Z"/><path d="M58.9,43.3a1.06,1.06,0,0,0,.3.72,1.14,1.14,0,0,0,.75.29,2,2,0,0,0,1.2-.43v1.89a2.59,2.59,0,0,1-1.5.43,2,2,0,0,1-1.8-1,4.52,4.52,0,0,1-.6-2.61,8.33,8.33,0,0,1,.3-2,4.43,4.43,0,0,1,.75-1.45,1.26,1.26,0,0,1,1.2-.44,2,2,0,0,1,1.2.44,3.1,3.1,0,0,1,.75,1.16,7.13,7.13,0,0,1,.3,1.89V43.3ZM60,41.7c0-.87-.15-1.31-.6-1.31a.32.32,0,0,0-.3.3,2.07,2.07,0,0,0-.15,1Z"/><path d="M63.71,43.3A1.06,1.06,0,0,0,64,44a1.14,1.14,0,0,0,.75.29,2,2,0,0,0,1.2-.43v1.89a2.59,2.59,0,0,1-1.5.43,2,2,0,0,1-1.8-1,4.14,4.14,0,0,1-.76-2.61,8.33,8.33,0,0,1,.3-2A4.65,4.65,0,0,1,63,39.09a1.26,1.26,0,0,1,1.2-.44,2,2,0,0,1,1.2.44,3.1,3.1,0,0,1,.75,1.16,7.13,7.13,0,0,1,.3,1.89V43.3Zm1.05-1.6c0-.87-.15-1.31-.6-1.31a.32.32,0,0,0-.3.3,1.78,1.78,0,0,0-.15.87h1.05Z"/><path d="M69.71,46.06v-.88h0a1.41,1.41,0,0,1-.6.73c-.3.15-.45.29-.6.29a1.08,1.08,0,0,1-.9-.43,2.71,2.71,0,0,1-.6-1.31,7.43,7.43,0,0,1-.15-1.89,8.33,8.33,0,0,1,.3-2,4.43,4.43,0,0,1,.75-1.45,1.39,1.39,0,0,1,1-.44.55.55,0,0,1,.45.15c.15.14.3.14.45.29a.51.51,0,0,1,.15.43h0V35.31h1.8V46.06Zm.15-3.92a2.1,2.1,0,0,0-.15-1c-.15-.29-.3-.29-.6-.29s-.3.15-.45.44a2.73,2.73,0,0,0-.15,1.16c0,1,.15,1.59.6,1.59.15,0,.3-.14.45-.43a2.75,2.75,0,0,0,.15-1.16v-.29Z"/><path d="M75,46.06V35.9h3.75v2.32H76.76v1.45h1.8V42h-1.8v1.45h2.11v2.33H75Z"/><path d="M82.17,46.06V42.14a2.1,2.1,0,0,0-.15-1c0-.29-.15-.29-.3-.29s-.3,0-.3.29a1.08,1.08,0,0,0-.15.73v4.06h-1.8V38.65h1.8v1.16h0a2.33,2.33,0,0,1,.6-1,.84.84,0,0,1,.75-.29c.9,0,1.35,1,1.35,3.05v4.35h-1.8Z"/><path d="M86.37,43.3a1.06,1.06,0,0,0,.3.72,1.14,1.14,0,0,0,.75.29,2,2,0,0,0,1.2-.43v1.89a2.59,2.59,0,0,1-1.5.43,2,2,0,0,1-1.8-1,4.52,4.52,0,0,1-.6-2.61,8.33,8.33,0,0,1,.3-2,4.43,4.43,0,0,1,.75-1.45,1.74,1.74,0,0,1,1.2-.44,2,2,0,0,1,1.2.44,3.1,3.1,0,0,1,.75,1.16v3Zm1-1.6c0-.87-.15-1.31-.6-1.31a.32.32,0,0,0-.3.3,1.78,1.78,0,0,0-.15.87h1Z"/><path d="M92.82,41.27a.52.52,0,0,0-.3-.15h-.3q-.9,0-.9,1.74v3.2h-1.8V38.8h1.8v1.3h0a3.37,3.37,0,0,1,.45-1c.15-.29.45-.29.75-.29s.15,0,.3.14Z"/><path d="M97.93,45a5.92,5.92,0,0,1-.75,3.19,2.48,2.48,0,0,1-2.26,1.16,1.43,1.43,0,0,1-.75-.14.8.8,0,0,1-.6-.29V46.64c.15.14.45.29.6.43a1.13,1.13,0,0,0,.6.15.92.92,0,0,0,.91-.44c.3-.29.3-.72.3-1.3V45h0a1.49,1.49,0,0,1-.6.73,1.22,1.22,0,0,1-.76.29,1.39,1.39,0,0,1-1.35-1,6.64,6.64,0,0,1-.45-2.76,8.33,8.33,0,0,1,.3-2,4.43,4.43,0,0,1,.75-1.45,1.39,1.39,0,0,1,1-.44,1.09,1.09,0,0,1,1.06.87h0v-.72h2Zm-1.8-2.9a2.1,2.1,0,0,0-.15-1c-.15-.29-.3-.43-.45-.43s-.3.14-.46.43a3.92,3.92,0,0,0-.15,1.31,2.75,2.75,0,0,0,.15,1.16c.16.29.31.43.46.43s.3-.14.45-.43a2.75,2.75,0,0,0,.15-1.16Z"/><path d="M99.58,49.39a1.2,1.2,0,0,1-.6-.14c-.15,0-.3-.15-.45-.15V46.78c0,.15.15.15.3.29a.55.55,0,0,0,.45.15.67.67,0,0,0,.6-.73l.15-.58-1.8-7.26h2l.45,3.49a5.42,5.42,0,0,1,.15,1.3h0v-.29c0-.14.3-1.59.6-4.5H103l-1.5,7.41a8.82,8.82,0,0,1-.9,2.46A1.09,1.09,0,0,1,99.58,49.39Z"/><path d="M110.08,46.06l-.3-.73a1.46,1.46,0,0,1-.75.58,2.11,2.11,0,0,1-.9.29,2.19,2.19,0,0,1-1.65-.72,3,3,0,0,1-.6-2.18,6,6,0,0,1,.3-1.6,8.48,8.48,0,0,1,1-1.31,4,4,0,0,1-.6-2.17,3.91,3.91,0,0,1,.45-1.89,1.6,1.6,0,0,1,1.35-.72,1.64,1.64,0,0,1,1.35.58,3,3,0,0,1,.45,1.74,4.19,4.19,0,0,1-.3,1.45,3.13,3.13,0,0,1-.9,1.16l.9,1.6a5.85,5.85,0,0,0,.15-1.75h1.35a7.43,7.43,0,0,1-.15,1.89,4.22,4.22,0,0,1-.6,1.45l1.21,2.18h-1.81Zm-2.25-4.36c-.15.15-.15.29-.3.44a1.25,1.25,0,0,0-.15.72,2,2,0,0,0,.3,1c.15.29.3.43.6.43a.58.58,0,0,0,.45-.14c.15-.15.3-.15.3-.29Zm1-3.48a.84.84,0,0,0-.15-.58c-.15-.15-.15-.15-.3-.15s-.3,0-.3.15-.15.29-.15.58a.51.51,0,0,0,.15.43c.15.15.15.44.3.73a1.12,1.12,0,0,0,.3-.58A.86.86,0,0,0,108.88,38.22Z"/><path d="M118.94,42.86a5.2,5.2,0,0,1-.3,1.74,2.27,2.27,0,0,1-.9,1.17,2.47,2.47,0,0,1-1.35.43,2.28,2.28,0,0,1-1.65-.58V42.86a4.12,4.12,0,0,0,.9.73,2.26,2.26,0,0,0,.9.29.55.55,0,0,0,.45-.15c.15-.14.15-.29.15-.58a.51.51,0,0,0-.15-.43.31.31,0,0,0-.3-.29,2.07,2.07,0,0,0-.6-.44,3.44,3.44,0,0,1-1.5-3.05,3.59,3.59,0,0,1,.6-2.32,2.16,2.16,0,0,1,1.8-.87h.6a.55.55,0,0,1,.45.15c.15,0,.3.14.6.29V38.8a2.4,2.4,0,0,0-1.5-.73.55.55,0,0,0-.45.15c-.15.14-.15.29-.15.58a.86.86,0,0,0,.15.58l.6.58a4.12,4.12,0,0,1,1.35,1.45A3.54,3.54,0,0,1,118.94,42.86Z"/><path d="M121,43.3a1.06,1.06,0,0,0,.3.72,1.14,1.14,0,0,0,.75.29,2,2,0,0,0,1.2-.43v1.89a2.59,2.59,0,0,1-1.5.43,2,2,0,0,1-1.8-1,4.52,4.52,0,0,1-.6-2.61,8.33,8.33,0,0,1,.3-2,4.43,4.43,0,0,1,.75-1.45,1.74,1.74,0,0,1,1.2-.44,2,2,0,0,1,1.2.44,3.1,3.1,0,0,1,.75,1.16,7.13,7.13,0,0,1,.3,1.89V43.3Zm1-1.6c0-.87-.15-1.31-.6-1.31a.32.32,0,0,0-.3.3,1.78,1.78,0,0,0-.15.87h1Z"/><path d="M127.49,41.27a.52.52,0,0,0-.3-.15h-.3q-.9,0-.9,1.74v3.2h-1.8V38.8H126v1.3h0a3.37,3.37,0,0,1,.45-1c.15-.29.45-.29.75-.29s.15,0,.3.14Z"/><path d="M131.1,46.06H129l-1.36-7.26h1.81l.45,3.92a5.81,5.81,0,0,1,.15,1.45h0v-.29c0-.15.15-1.74.6-5.08h1.8Z"/><path d="M134.85,36.77a2,2,0,0,1-.3,1,.83.83,0,0,1-.75.44c-.3,0-.45-.15-.75-.44a1.19,1.19,0,0,1-.3-1,2,2,0,0,1,.3-1,.86.86,0,0,1,1.5,0A1.2,1.2,0,0,1,134.85,36.77Zm-1.8,9.29V38.8h1.8v7.26Z"/><path d="M139.2,45.77c-.15.14-.3.14-.6.29-.3,0-.6.14-.9.14a1.73,1.73,0,0,1-1.2-.43,2.8,2.8,0,0,1-.75-1.31,7.13,7.13,0,0,1-.3-1.89,8.61,8.61,0,0,1,.3-2.18,2.1,2.1,0,0,1,.9-1.3,2.48,2.48,0,0,1,1.35-.44,1.12,1.12,0,0,1,.75.15c.15,0,.3.14.45.14v2.33c-.15-.15-.15-.29-.45-.29s-.3-.15-.45-.15a.83.83,0,0,0-.75.44,2.64,2.64,0,0,0-.3,1.16,2.68,2.68,0,0,0,.3,1.16.82.82,0,0,0,.75.43,1.31,1.31,0,0,0,.9-.43Z"/><path d="M141.45,43.3a1.06,1.06,0,0,0,.3.72,1.14,1.14,0,0,0,.75.29,2,2,0,0,0,1.2-.43v1.89a2.59,2.59,0,0,1-1.5.43,2,2,0,0,1-1.8-1,4.52,4.52,0,0,1-.6-2.61,8.33,8.33,0,0,1,.3-2,4.43,4.43,0,0,1,.75-1.45,1.74,1.74,0,0,1,1.2-.44,2,2,0,0,1,1.2.44,3.1,3.1,0,0,1,.75,1.16,7.13,7.13,0,0,1,.3,1.89V43.3Zm1.05-1.6c0-.87-.15-1.31-.6-1.31a.32.32,0,0,0-.3.3,1.78,1.78,0,0,0-.15.87h1.05Z"/><path d="M148.06,43.59a2.43,2.43,0,0,1-.6,1.89,1.88,1.88,0,0,1-1.5.72,1.73,1.73,0,0,1-.75-.14c-.3,0-.45-.15-.76-.29v-2a1.88,1.88,0,0,0,1.36.58c.3,0,.45-.14.45-.43s0-.29-.15-.29a2.07,2.07,0,0,0-.6-.44c-.45-.14-.6-.43-.75-.87a2.78,2.78,0,0,1-.31-1.3,2.29,2.29,0,0,1,.61-1.75,1.88,1.88,0,0,1,1.5-.72,4.56,4.56,0,0,1,1.2.29v2a.8.8,0,0,0-.6-.29.74.74,0,0,0-.45-.15c-.15,0-.15,0-.3.15a.52.52,0,0,0-.15.29c0,.15,0,.29.15.29,0,.15.15.15.45.29a1.35,1.35,0,0,1,.9.87C148.06,42.57,148.06,43,148.06,43.59Z"/><path d="M151.36,46.06V35.9h1.8v7.69h2.1v2.32h-3.9Z"/><path d="M158.71,45.91c-.15,0-.15.15-.45.15-.15,0-.45.14-.6.14a1.54,1.54,0,0,1-1.2-.72,3.79,3.79,0,0,1-.45-2V40.83h-.6v-2h.6V37.35l1.8-.87v2.17h.9v2.18h-.9V43c0,.58.15,1,.45,1a.58.58,0,0,0,.45-.14Z"/><path d="M162.17,46.06v-.88h0a1.41,1.41,0,0,1-.6.73c-.3.15-.45.29-.61.29a1.08,1.08,0,0,1-.9-.43,2.71,2.71,0,0,1-.6-1.31,7.43,7.43,0,0,1-.15-1.89,8.33,8.33,0,0,1,.3-2,4.43,4.43,0,0,1,.75-1.45,1.39,1.39,0,0,1,1.06-.44.55.55,0,0,1,.45.15c.15.14.3.14.45.29a.51.51,0,0,1,.15.43h0V35.31h1.8V46.06Zm0-3.92a2.1,2.1,0,0,0-.15-1c-.15-.29-.3-.29-.45-.29s-.3.15-.45.44a2.57,2.57,0,0,0-.16,1.16c0,1,.16,1.59.61,1.59.15,0,.3-.14.45-.43a2.75,2.75,0,0,0,.15-1.16Z"/></g><path d="M47.89.26h6.47V3.55h-4V6h3.75V9.14H50.31v3h4.16v3.49H47.89Z"/><path d="M55.79.26H58L61,8.79V.26h2.27V15.67H61L58.06,7.21v8.46H55.79Z"/><path d="M64.85.26h6.46V3.55h-4V6H71V9.14H67.27v3h4.16v3.49H64.85Z"/><path d="M72.76,15.67V.26h4a3.23,3.23,0,0,1,1.71.38,2.64,2.64,0,0,1,1,1.4,7.64,7.64,0,0,1,.36,2.5,8,8,0,0,1-.27,2.21,4.21,4.21,0,0,1-.77,1.51,2.28,2.28,0,0,1-.84.61,2.33,2.33,0,0,1,.62.57,4.35,4.35,0,0,1,.39.81,8.37,8.37,0,0,1,.34.95l1.17,4.47H77.71L76.42,11A4.64,4.64,0,0,0,76,9.77a.74.74,0,0,0-.6-.35h-.21v6.25ZM75.18,6.5h1a2.09,2.09,0,0,0,.64-.21.76.76,0,0,0,.39-.48,2.48,2.48,0,0,0,.15-.89,2.26,2.26,0,0,0-.24-1.15,1,1,0,0,0-.9-.4H75.18Z"/><path d="M84.93,10.09V6.88h3.73v6.57a7.89,7.89,0,0,1-1.89,2,3.55,3.55,0,0,1-2,.52A3,3,0,0,1,82.55,15a6.5,6.5,0,0,1-1.36-2.78A17,17,0,0,1,80.71,8a16.21,16.21,0,0,1,.53-4.38A6.1,6.1,0,0,1,82.78.75,3,3,0,0,1,84.92,0a3.27,3.27,0,0,1,1.93.46A3.36,3.36,0,0,1,87.92,1.9a9.63,9.63,0,0,1,.63,2.46l-2.32.82a3.06,3.06,0,0,0-.49-1.33,1,1,0,0,0-.87-.47c-.53,0-1,.37-1.27,1.09a9.35,9.35,0,0,0-.47,3.44,9.46,9.46,0,0,0,.48,3.57c.31.72.76,1.08,1.32,1.08a1.5,1.5,0,0,0,.78-.23,4.46,4.46,0,0,0,.84-.79V10.09Z"/><path d="M89.3.26H92l1.58,5.2L95.13.26H97.8l-3,9v6.46H92.34V9.21Z"/><path d="M101.79,10.57l2.29-.28a5.65,5.65,0,0,0,.31,1.68c.24.62.6.93,1.06.93a.89.89,0,0,0,.8-.48,2.16,2.16,0,0,0,.28-1.1,2.1,2.1,0,0,0-.27-1.07,2.52,2.52,0,0,0-1.24-.9,4.71,4.71,0,0,1-2.26-1.87,5.88,5.88,0,0,1-.68-3,7.26,7.26,0,0,1,.35-2.25,3.65,3.65,0,0,1,1-1.66A2.83,2.83,0,0,1,105.4,0a2.64,2.64,0,0,1,2.28,1.1,6.87,6.87,0,0,1,.93,3.49l-2.27.26A3.69,3.69,0,0,0,106,3.34a.9.9,0,0,0-.8-.47.72.72,0,0,0-.64.35,1.66,1.66,0,0,0-.21.86,1.26,1.26,0,0,0,.18.66,1.61,1.61,0,0,0,.81.57,7,7,0,0,1,2.26,1.36,4.09,4.09,0,0,1,1,1.7,8.06,8.06,0,0,1,.31,2.28,8.6,8.6,0,0,1-.42,2.74,4.1,4.1,0,0,1-1.16,1.89,2.75,2.75,0,0,1-1.88.65,2.81,2.81,0,0,1-2.75-1.51A9.31,9.31,0,0,1,101.79,10.57Z"/><path d="M109.78,8a13.23,13.23,0,0,1,1.06-5.88,3.18,3.18,0,0,1,6,0,13,13,0,0,1,1,5.79,17.49,17.49,0,0,1-.46,4.43A6.34,6.34,0,0,1,116.07,15a2.8,2.8,0,0,1-2.17,1,3,3,0,0,1-2.18-.83,5.84,5.84,0,0,1-1.4-2.63A15.84,15.84,0,0,1,109.78,8Zm2.41,0a9.26,9.26,0,0,0,.44,3.35c.29.68.69,1,1.19,1s.92-.33,1.21-1a10.42,10.42,0,0,0,.42-3.58A8.33,8.33,0,0,0,115,4.61c-.3-.67-.7-1-1.21-1s-.87.34-1.17,1A9.37,9.37,0,0,0,112.19,8Z"/><path d="M119.16.26h2.42V11.87h3.76v3.8h-6.18Z"/><path d="M131.23.26h2.41V9.44a14.17,14.17,0,0,1-.22,2.58,7.76,7.76,0,0,1-.67,2.12,3.55,3.55,0,0,1-1,1.28,2.8,2.8,0,0,1-1.69.51,5.21,5.21,0,0,1-1.24-.16,2.18,2.18,0,0,1-1.12-.62,4.35,4.35,0,0,1-.83-1.33,7.41,7.41,0,0,1-.52-1.78,17.28,17.28,0,0,1-.22-2.6V.26h2.41v9.4a4.43,4.43,0,0,0,.35,2,1,1,0,0,0,2,0,4.59,4.59,0,0,0,.35-2Z"/><path d="M134.69.26H142V4.07h-2.46v11.6h-2.41V4.07h-2.46Z"/><path d="M143.21.26h2.41V15.67h-2.41Z"/><path d="M147.05,8a13.23,13.23,0,0,1,1.06-5.88,3.18,3.18,0,0,1,6,0,13,13,0,0,1,1,5.79,17.49,17.49,0,0,1-.46,4.43A6.34,6.34,0,0,1,153.34,15a2.8,2.8,0,0,1-2.17,1A3,3,0,0,1,149,15.1a5.84,5.84,0,0,1-1.4-2.63A15.84,15.84,0,0,1,147.05,8Zm2.41,0a9.26,9.26,0,0,0,.44,3.35c.29.68.69,1,1.19,1s.92-.33,1.21-1a10.42,10.42,0,0,0,.42-3.58,8.54,8.54,0,0,0-.44-3.18c-.3-.67-.7-1-1.21-1s-.87.34-1.17,1A9.37,9.37,0,0,0,149.46,8Z"/><path d="M156.45.26h2.25l2.94,8.53V.26h2.27V15.67h-2.27l-2.92-8.46v8.46h-2.27Z"/><path d="M169.15.26h6.46V3.55h-4.05V6h3.76V9.14h-3.76v3h4.17v3.49h-6.58Z"/><path d="M177,.26h2.25l2.94,8.53V.26h2.28V15.67h-2.28l-2.92-8.46v8.46H177Z"/><path d="M190,10.09V6.88h3.73v6.57a8.08,8.08,0,0,1-1.9,2,3.51,3.51,0,0,1-2,.52,2.94,2.94,0,0,1-2.26-.94,6.28,6.28,0,0,1-1.36-2.78A17,17,0,0,1,185.81,8a15.82,15.82,0,0,1,.53-4.38A6,6,0,0,1,187.88.75,3,3,0,0,1,190,0,3.29,3.29,0,0,1,192,.46,3.44,3.44,0,0,1,193,1.9a9.63,9.63,0,0,1,.63,2.46l-2.33.82a2.94,2.94,0,0,0-.48-1.33,1.05,1.05,0,0,0-.88-.47c-.53,0-1,.37-1.26,1.09a9.14,9.14,0,0,0-.47,3.44,9.72,9.72,0,0,0,.47,3.57c.32.72.76,1.08,1.33,1.08a1.44,1.44,0,0,0,.77-.23,3.92,3.92,0,0,0,.84-.79V10.09Z"/><path d="M195.28.26h2.42V15.67h-2.42Z"/><path d="M199.45.26h2.25l2.94,8.53V.26h2.27V15.67h-2.27l-2.92-8.46v8.46h-2.27Z"/><path d="M208.51.26H215V3.55h-4V6h3.75V9.14h-3.75v3h4.16v3.49h-6.58Z"/><path d="M216.38.26h6.46V3.55h-4V6h3.75V9.14H218.8v3H223v3.49h-6.58Z"/><path d="M224.29,15.67V.26h4A3.19,3.19,0,0,1,230,.64,2.64,2.64,0,0,1,231,2a7.36,7.36,0,0,1,.37,2.5,8,8,0,0,1-.28,2.21,4.36,4.36,0,0,1-.76,1.51,2.42,2.42,0,0,1-.85.61,2.24,2.24,0,0,1,.63.57,3.91,3.91,0,0,1,.38.81,8.37,8.37,0,0,1,.34.95L232,15.67h-2.73L228,11a4.54,4.54,0,0,0-.44-1.19.72.72,0,0,0-.59-.35h-.21v6.25Zm2.43-9.17h1a2,2,0,0,0,.64-.21.76.76,0,0,0,.39-.48,2.48,2.48,0,0,0,.15-.89,2.26,2.26,0,0,0-.24-1.15,1,1,0,0,0-.9-.4h-1.05Z"/><path d="M232.84.26h2.41V15.67h-2.41Z"/><path d="M237,.26h2.25l2.94,8.53V.26h2.27V15.67h-2.27l-2.92-8.46v8.46H237Z"/><path d="M250,10.09V6.88h3.73v6.57a8.08,8.08,0,0,1-1.9,2,3.55,3.55,0,0,1-1.95.52,2.94,2.94,0,0,1-2.26-.94,6.28,6.28,0,0,1-1.36-2.78A17,17,0,0,1,245.77,8a16.24,16.24,0,0,1,.52-4.38A6.11,6.11,0,0,1,247.84.75,3,3,0,0,1,250,0a3.31,3.31,0,0,1,1.94.46A3.35,3.35,0,0,1,253,1.9a9.2,9.2,0,0,1,.64,2.46l-2.33.82a3.07,3.07,0,0,0-.48-1.33,1.07,1.07,0,0,0-.88-.47c-.53,0-.95.37-1.26,1.09a9.1,9.1,0,0,0-.48,3.44,9.46,9.46,0,0,0,.48,3.57c.32.72.76,1.08,1.33,1.08a1.44,1.44,0,0,0,.77-.23,3.92,3.92,0,0,0,.84-.79V10.09Z"/><path d="M258.78.26h2.41V11.87H265v3.8h-6.18Z"/><path d="M265,.26h7.33V4.07h-2.46v11.6h-2.41V4.07H265Z"/><path d="M273.41.26H277a2.49,2.49,0,0,1,1.71.57,4.08,4.08,0,0,1,1.08,1.63,10.73,10.73,0,0,1,.62,2.47,23.46,23.46,0,0,1,.19,3,19.69,19.69,0,0,1-.29,3.83,8.09,8.09,0,0,1-.79,2.28,2.91,2.91,0,0,1-1.08,1.23,3.14,3.14,0,0,1-1.44.42h-3.58Zm2.41,3.49v8.42h.59a1.44,1.44,0,0,0,1.07-.33,2.38,2.38,0,0,0,.5-1.16A13,13,0,0,0,278.17,8a9.34,9.34,0,0,0-.41-3.36,1.38,1.38,0,0,0-1.34-.9Z"/><path d="M281.53,11.38h2.32v4.29h-2.32Z"/><path d="M48.25,17.28h6.46v3.29H50.66V23h3.76v3.14H50.66v3h4.17v3.48H48.25Z"/><path d="M56.14,17.28h2.25l2.94,8.52V17.28H63.6v15.4H61.33l-2.92-8.45v8.45H56.14Z"/><path d="M65.2,17.28h6.46v3.29h-4V23h3.75v3.14H67.62v3h4.16v3.48H65.2Z"/><path d="M73.11,32.68V17.28h4a3.19,3.19,0,0,1,1.71.38,2.64,2.64,0,0,1,1,1.4,7.32,7.32,0,0,1,.37,2.5,8,8,0,0,1-.28,2.21,4.36,4.36,0,0,1-.76,1.51,2.4,2.4,0,0,1-.85.6,2.24,2.24,0,0,1,.63.57,4.54,4.54,0,0,1,.38.81,9.11,9.11,0,0,1,.34,1l1.17,4.46H78.06L76.78,28a4.54,4.54,0,0,0-.44-1.19.74.74,0,0,0-.59-.36h-.22v6.25Zm2.42-9.16h1a2.09,2.09,0,0,0,.64-.21.76.76,0,0,0,.39-.48,2.5,2.5,0,0,0,.15-.9,2.22,2.22,0,0,0-.24-1.14,1,1,0,0,0-.9-.4H75.53Z"/><path d="M85.29,27.1V23.9H89v6.57a7.89,7.89,0,0,1-1.89,2,3.64,3.64,0,0,1-2,.52A3,3,0,0,1,82.91,32a6.28,6.28,0,0,1-1.36-2.78A17,17,0,0,1,81.07,25a16.37,16.37,0,0,1,.52-4.39,6.12,6.12,0,0,1,1.55-2.83A3,3,0,0,1,85.27,17a3.33,3.33,0,0,1,1.94.46,3.39,3.39,0,0,1,1.06,1.43,9.68,9.68,0,0,1,.64,2.47l-2.33.82a3,3,0,0,0-.49-1.34,1,1,0,0,0-.87-.46c-.53,0-1,.36-1.27,1.09a9.32,9.32,0,0,0-.47,3.44A9.46,9.46,0,0,0,84,28.5c.32.72.76,1.07,1.33,1.07a1.38,1.38,0,0,0,.77-.23,3.88,3.88,0,0,0,.84-.79V27.1Z"/><path d="M89.66,17.28h2.68l1.57,5.2,1.57-5.2h2.67l-3,9v6.45H92.7V26.23Z"/><path d="M102.14,27.59l2.3-.29a5.9,5.9,0,0,0,.3,1.68c.25.63.6.94,1.06.94a.88.88,0,0,0,.8-.48,2.3,2.3,0,0,0,0-2.18,2.54,2.54,0,0,0-1.23-.89,4.67,4.67,0,0,1-2.26-1.87,5.79,5.79,0,0,1-.69-3,7.15,7.15,0,0,1,.35-2.24,3.77,3.77,0,0,1,1-1.66,2.87,2.87,0,0,1,1.92-.6A2.62,2.62,0,0,1,108,18.11a6.83,6.83,0,0,1,.94,3.5l-2.28.26a3.49,3.49,0,0,0-.38-1.51.89.89,0,0,0-.8-.48.68.68,0,0,0-.63.36,1.63,1.63,0,0,0-.22.85,1.21,1.21,0,0,0,.18.66,1.5,1.5,0,0,0,.81.57,7.2,7.2,0,0,1,2.26,1.36,4.06,4.06,0,0,1,1,1.71,7.71,7.71,0,0,1,.31,2.28,8.78,8.78,0,0,1-.41,2.73,4.25,4.25,0,0,1-1.16,1.9,3.18,3.18,0,0,1-4.64-.87A9.46,9.46,0,0,1,102.14,27.59Z"/><path d="M110.13,25a13.2,13.2,0,0,1,1.07-5.87,3.17,3.17,0,0,1,6,0,12.87,12.87,0,0,1,1.06,5.79,17.88,17.88,0,0,1-.46,4.42A6.39,6.39,0,0,1,116.43,32a2.79,2.79,0,0,1-2.17,1,3.06,3.06,0,0,1-2.19-.83,6.1,6.1,0,0,1-1.4-2.63A15.91,15.91,0,0,1,110.13,25Zm2.41,0a9.28,9.28,0,0,0,.44,3.36c.3.67.69,1,1.2,1s.92-.33,1.2-1a10.39,10.39,0,0,0,.43-3.59,8.3,8.3,0,0,0-.45-3.18c-.29-.66-.7-1-1.2-1s-.88.34-1.17,1A9,9,0,0,0,112.54,25Z"/><path d="M119.52,17.28h2.41V28.89h3.76v3.79h-6.17Z"/><path d="M131.59,17.28H134v9.18a15.14,15.14,0,0,1-.21,2.58,7.88,7.88,0,0,1-.68,2.12,3.61,3.61,0,0,1-1,1.27,2.83,2.83,0,0,1-1.69.52,5.87,5.87,0,0,1-1.25-.16,2.23,2.23,0,0,1-1.12-.63,4.48,4.48,0,0,1-.83-1.32,7.08,7.08,0,0,1-.51-1.78,17.52,17.52,0,0,1-.23-2.6V17.28h2.41v9.4a4.52,4.52,0,0,0,.35,2,1.09,1.09,0,0,0,1,.71,1.07,1.07,0,0,0,1-.7,4.35,4.35,0,0,0,.36-2Z"/><path d="M135,17.28h7.33v3.8h-2.46v11.6H137.5V21.08H135Z"/><path d="M143.56,17.28H146v15.4h-2.42Z"/><path d="M147.4,25a13.2,13.2,0,0,1,1.07-5.87,3.17,3.17,0,0,1,6,0,12.87,12.87,0,0,1,1.06,5.79,17.88,17.88,0,0,1-.46,4.42A6.39,6.39,0,0,1,153.7,32a2.79,2.79,0,0,1-2.17,1,3.06,3.06,0,0,1-2.19-.83,6.1,6.1,0,0,1-1.4-2.63A15.91,15.91,0,0,1,147.4,25Zm2.41,0a9.28,9.28,0,0,0,.44,3.36c.3.67.69,1,1.2,1s.92-.33,1.2-1a10.39,10.39,0,0,0,.43-3.59,8.3,8.3,0,0,0-.45-3.18c-.29-.66-.7-1-1.2-1s-.88.34-1.17,1A9,9,0,0,0,149.81,25Z"/><path d="M156.8,17.28h2.26L162,25.8V17.28h2.28v15.4H162l-2.92-8.45v8.45H156.8Z"/></g></g></svg>